<svg viewBox="0 0 41 41" fill="none" xmlns="http://www.w3.org/2000/svg">
    <path d="M4.93546 34.0295H10.6934V20.0895L2.46777 13.9395V31.5695C2.46777 32.9225 3.57823 34.0295 4.93546 34.0295Z" fill="#4285F4"></path>
    <path d="M30.4351 34.0295H36.193C37.5502 34.0295 38.6607 32.9225 38.6607 31.5695V13.9395L30.4351 20.0895V34.0295Z" fill="#34A853"></path>
    <path d="M30.4351 9.42959V20.0896L38.6607 13.9396V10.6596C38.6607 7.62559 35.1648 5.86259 32.7382 7.70759L30.4351 9.42959Z" fill="#FBBC04"></path>
    <path fill-rule="evenodd" clip-rule="evenodd" d="M10.6934 20.0897V9.42969L20.5641 16.8097L30.4348 9.42969V20.0897L20.5641 27.4697L10.6934 20.0897Z" fill="#EA4335"></path>
    <path d="M2.46777 10.6603V13.9403L10.6934 20.0903V9.43028L8.39022 7.70828C5.96366 5.90428 2.46777 7.62628 2.46777 10.6603Z" fill="#C5221F"></path>
</svg>